# MagicaVoxel @ Ephtracy

# group
o 

# material
mtllib afterWaterDanger.mtl
usemtl palette

# normals
vn -1 0 0
vn 1 0 0
vn 0 0 1
vn 0 0 -1
vn 0 -1 0
vn 0 1 0

# texcoords
vt 0.537109 0.5
vt 0.830078 0.5
vt 0.904297 0.5
vt 0.931641 0.5
vt 0.935547 0.5
vt 0.939453 0.5
vt 0.978516 0.5
vt 0.982422 0.5
vt 0.986328 0.5
vt 0.994141 0.5

# verts
v -0.3 -0.2 0.3
v -0.3 -0.2 -0.3
v -0.3 0.1 0.3
v -0.3 0.1 -0.3
v -0.3 0.3 0.3
v -0.3 0.3 0.2
v -0.3 0.3 0.1
v -0.3 0.3 -0.1
v -0.3 0.3 -0.2
v -0.3 0.3 -0.3
v -0.3 0.4 0.3
v -0.3 0.4 0.2
v -0.3 0.4 0.1
v -0.3 0.4 -0.1
v -0.3 0.4 -0.2
v -0.3 0.4 -0.3
v 0.3 -0.2 0.3
v 0.3 -0.2 -0.3
v 0.3 0.1 0.3
v 0.3 0.1 -0.3
v 0.3 0.3 0.3
v 0.3 0.3 0.2
v 0.3 0.3 0.1
v 0.3 0.3 0
v 0.3 0.3 -0.1
v 0.3 0.3 -0.2
v 0.3 0.3 -0.3
v 0.3 0.4 0.3
v 0.3 0.4 0.2
v 0.3 0.4 0.1
v 0.3 0.4 0
v 0.3 0.4 -0.1
v 0.3 0.4 -0.2
v 0.3 0.4 -0.3
v -0.3 -0.2 0.3
v -0.3 0.1 0.3
v -0.3 0.3 0.3
v -0.3 0.4 0.3
v 0.3 -0.2 0.3
v 0.3 0.1 0.3
v 0.3 0.3 0.3
v 0.3 0.4 0.3
v -0.3 -0.2 -0.3
v -0.3 0.1 -0.3
v -0.3 0.3 -0.3
v -0.3 0.4 -0.3
v 0.3 -0.2 -0.3
v 0.3 0.1 -0.3
v 0.3 0.3 -0.3
v 0.3 0.4 -0.3
v -0.3 -0.2 0.3
v 0.3 -0.2 0.3
v -0.3 -0.2 -0.3
v 0.3 -0.2 -0.3
v -0.3 0.4 0.3
v 0.3 0.4 0.3
v -0.3 0.4 0.2
v -0.2 0.4 0.2
v -0.1 0.4 0.2
v 0 0.4 0.2
v 0.2 0.4 0.2
v 0.3 0.4 0.2
v -0.3 0.4 0.1
v -0.2 0.4 0.1
v 0 0.4 0.1
v 0.2 0.4 0.1
v 0.3 0.4 0.1
v -0.2 0.4 0
v -0.1 0.4 0
v 0.1 0.4 0
v 0.2 0.4 0
v 0.3 0.4 0
v -0.3 0.4 -0.1
v -0.2 0.4 -0.1
v 0.1 0.4 -0.1
v 0.2 0.4 -0.1
v 0.3 0.4 -0.1
v -0.3 0.4 -0.2
v -0.2 0.4 -0.2
v 0.1 0.4 -0.2
v 0.2 0.4 -0.2
v 0.3 0.4 -0.2
v -0.3 0.4 -0.3
v 0.3 0.4 -0.3

# faces
f 3/10/1 2/10/1 1/10/1
f 4/10/1 2/10/1 3/10/1
f 5/1/1 4/1/1 3/1/1
f 6/1/1 4/1/1 5/1/1
f 7/1/1 4/1/1 6/1/1
f 8/1/1 4/1/1 7/1/1
f 9/1/1 4/1/1 8/1/1
f 10/1/1 4/1/1 9/1/1
f 11/3/1 6/3/1 5/3/1
f 12/8/1 7/8/1 6/8/1
f 12/3/1 6/3/1 11/3/1
f 13/7/1 8/7/1 7/7/1
f 13/8/1 7/8/1 12/8/1
f 14/9/1 9/9/1 8/9/1
f 14/7/1 8/7/1 13/7/1
f 15/3/1 10/3/1 9/3/1
f 15/9/1 9/9/1 14/9/1
f 16/3/1 10/3/1 15/3/1
f 17/10/2 18/10/2 19/10/2
f 19/10/2 18/10/2 20/10/2
f 19/1/2 20/1/2 21/1/2
f 21/1/2 20/1/2 22/1/2
f 22/1/2 20/1/2 23/1/2
f 23/1/2 20/1/2 24/1/2
f 24/1/2 20/1/2 25/1/2
f 25/1/2 20/1/2 26/1/2
f 26/1/2 20/1/2 27/1/2
f 21/3/2 22/3/2 28/3/2
f 22/5/2 23/5/2 29/5/2
f 28/3/2 22/3/2 29/3/2
f 23/4/2 24/4/2 30/4/2
f 29/5/2 23/5/2 30/5/2
f 24/2/2 25/2/2 31/2/2
f 30/4/2 24/4/2 31/4/2
f 25/6/2 26/6/2 32/6/2
f 31/2/2 25/2/2 32/2/2
f 26/3/2 27/3/2 33/3/2
f 32/6/2 26/6/2 33/6/2
f 33/3/2 27/3/2 34/3/2
f 39/10/3 36/10/3 35/10/3
f 40/1/3 37/1/3 36/1/3
f 40/10/3 36/10/3 39/10/3
f 41/3/3 38/3/3 37/3/3
f 41/1/3 37/1/3 40/1/3
f 42/3/3 38/3/3 41/3/3
f 43/10/4 44/10/4 47/10/4
f 44/1/4 45/1/4 48/1/4
f 47/10/4 44/10/4 48/10/4
f 45/3/4 46/3/4 49/3/4
f 48/1/4 45/1/4 49/1/4
f 49/3/4 46/3/4 50/3/4
f 53/10/5 52/10/5 51/10/5
f 54/10/5 52/10/5 53/10/5
f 55/3/6 56/3/6 57/3/6
f 57/3/6 56/3/6 58/3/6
f 58/3/6 56/3/6 59/3/6
f 59/3/6 56/3/6 60/3/6
f 60/3/6 56/3/6 61/3/6
f 61/3/6 56/3/6 62/3/6
f 57/8/6 58/8/6 63/8/6
f 58/7/6 59/7/6 64/7/6
f 63/8/6 58/8/6 64/8/6
f 59/8/6 60/8/6 65/8/6
f 60/9/6 61/9/6 65/9/6
f 61/5/6 62/5/6 66/5/6
f 65/9/6 61/9/6 66/9/6
f 66/5/6 62/5/6 67/5/6
f 64/7/6 59/7/6 68/7/6
f 63/7/6 64/7/6 68/7/6
f 59/8/6 65/8/6 69/8/6
f 68/7/6 59/7/6 69/7/6
f 65/8/6 66/8/6 69/8/6
f 69/8/6 66/8/6 70/8/6
f 66/4/6 67/4/6 71/4/6
f 70/8/6 66/8/6 71/8/6
f 71/4/6 67/4/6 72/4/6
f 63/7/6 68/7/6 73/7/6
f 69/9/6 70/9/6 74/9/6
f 73/7/6 68/7/6 74/7/6
f 68/9/6 69/9/6 74/9/6
f 70/7/6 71/7/6 75/7/6
f 74/9/6 70/9/6 75/9/6
f 71/2/6 72/2/6 76/2/6
f 75/7/6 71/7/6 76/7/6
f 76/2/6 72/2/6 77/2/6
f 73/9/6 74/9/6 78/9/6
f 74/8/6 75/8/6 79/8/6
f 78/9/6 74/9/6 79/9/6
f 75/9/6 76/9/6 80/9/6
f 79/8/6 75/8/6 80/8/6
f 76/6/6 77/6/6 81/6/6
f 80/9/6 76/9/6 81/9/6
f 81/6/6 77/6/6 82/6/6
f 78/3/6 79/3/6 83/3/6
f 79/3/6 80/3/6 83/3/6
f 81/3/6 82/3/6 83/3/6
f 80/3/6 81/3/6 83/3/6
f 83/3/6 82/3/6 84/3/6
