# MagicaVoxel @ Ephtracy

# group
o 

# material
mtllib afterHoleDanger.mtl
usemtl palette

# normals
vn -1 0 0
vn 1 0 0
vn 0 0 1
vn 0 0 -1
vn 0 -1 0
vn 0 1 0

# texcoords
vt 0.537109 0.5
vt 0.697266 0.5
vt 0.904297 0.5
vt 0.951172 0.5
vt 0.978516 0.5
vt 0.982422 0.5
vt 0.986328 0.5
vt 0.994141 0.5

# verts
v -0.3 -0.2 0.3
v -0.3 -0.2 -0.3
v -0.3 0.1 0.3
v -0.3 0.1 -0.3
v -0.3 0.3 0.3
v -0.3 0.3 0.2
v -0.3 0.3 0.1
v -0.3 0.3 -0.1
v -0.3 0.3 -0.2
v -0.3 0.3 -0.3
v -0.3 0.4 0.3
v -0.3 0.4 0.2
v -0.3 0.4 0.1
v -0.3 0.4 -0.1
v -0.3 0.4 -0.2
v -0.3 0.4 -0.3
v 0.3 -0.2 0.3
v 0.3 -0.2 -0.3
v 0.3 0.1 0.3
v 0.3 0.1 -0.3
v 0.3 0.3 0.3
v 0.3 0.3 0.2
v 0.3 0.3 0.1
v 0.3 0.3 0
v 0.3 0.3 -0.2
v 0.3 0.3 -0.3
v 0.3 0.4 0.3
v 0.3 0.4 0.2
v 0.3 0.4 0.1
v 0.3 0.4 0
v 0.3 0.4 -0.2
v 0.3 0.4 -0.3
v -0.3 -0.2 0.3
v -0.3 0.1 0.3
v -0.3 0.3 0.3
v -0.3 0.4 0.3
v 0.3 -0.2 0.3
v 0.3 0.1 0.3
v 0.3 0.3 0.3
v 0.3 0.4 0.3
v -0.3 -0.2 -0.3
v -0.3 0.1 -0.3
v -0.3 0.3 -0.3
v -0.3 0.4 -0.3
v 0.3 -0.2 -0.3
v 0.3 0.1 -0.3
v 0.3 0.3 -0.3
v 0.3 0.4 -0.3
v -0.3 -0.2 0.3
v 0.3 -0.2 0.3
v -0.3 -0.2 -0.3
v 0.3 -0.2 -0.3
v -0.3 0.4 0.3
v 0.3 0.4 0.3
v -0.3 0.4 0.2
v -0.2 0.4 0.2
v -0.1 0.4 0.2
v 0 0.4 0.2
v 0.2 0.4 0.2
v 0.3 0.4 0.2
v -0.3 0.4 0.1
v -0.2 0.4 0.1
v 0 0.4 0.1
v 0.2 0.4 0.1
v 0.3 0.4 0.1
v -0.2 0.4 0
v -0.1 0.4 0
v 0.1 0.4 0
v 0.2 0.4 0
v 0.3 0.4 0
v -0.3 0.4 -0.1
v -0.2 0.4 -0.1
v 0.1 0.4 -0.1
v 0.2 0.4 -0.1
v -0.3 0.4 -0.2
v -0.2 0.4 -0.2
v 0.1 0.4 -0.2
v 0.2 0.4 -0.2
v 0.3 0.4 -0.2
v -0.3 0.4 -0.3
v 0.3 0.4 -0.3

# faces
f 3/8/1 2/8/1 1/8/1
f 4/8/1 2/8/1 3/8/1
f 5/1/1 4/1/1 3/1/1
f 6/1/1 4/1/1 5/1/1
f 7/1/1 4/1/1 6/1/1
f 8/1/1 4/1/1 7/1/1
f 9/1/1 4/1/1 8/1/1
f 10/1/1 4/1/1 9/1/1
f 11/3/1 6/3/1 5/3/1
f 12/6/1 7/6/1 6/6/1
f 12/3/1 6/3/1 11/3/1
f 13/5/1 8/5/1 7/5/1
f 13/6/1 7/6/1 12/6/1
f 14/7/1 9/7/1 8/7/1
f 14/5/1 8/5/1 13/5/1
f 15/3/1 10/3/1 9/3/1
f 15/7/1 9/7/1 14/7/1
f 16/3/1 10/3/1 15/3/1
f 17/8/2 18/8/2 19/8/2
f 19/8/2 18/8/2 20/8/2
f 19/1/2 20/1/2 21/1/2
f 21/1/2 20/1/2 22/1/2
f 22/1/2 20/1/2 23/1/2
f 23/1/2 20/1/2 24/1/2
f 24/1/2 20/1/2 25/1/2
f 25/1/2 20/1/2 26/1/2
f 21/3/2 22/3/2 27/3/2
f 22/8/2 23/8/2 28/8/2
f 27/3/2 22/3/2 28/3/2
f 23/2/2 24/2/2 29/2/2
f 28/8/2 23/8/2 29/8/2
f 24/4/2 25/4/2 30/4/2
f 29/2/2 24/2/2 30/2/2
f 25/3/2 26/3/2 31/3/2
f 30/4/2 25/4/2 31/4/2
f 31/3/2 26/3/2 32/3/2
f 37/8/3 34/8/3 33/8/3
f 38/1/3 35/1/3 34/1/3
f 38/8/3 34/8/3 37/8/3
f 39/3/3 36/3/3 35/3/3
f 39/1/3 35/1/3 38/1/3
f 40/3/3 36/3/3 39/3/3
f 41/8/4 42/8/4 45/8/4
f 42/1/4 43/1/4 46/1/4
f 45/8/4 42/8/4 46/8/4
f 43/3/4 44/3/4 47/3/4
f 46/1/4 43/1/4 47/1/4
f 47/3/4 44/3/4 48/3/4
f 51/8/5 50/8/5 49/8/5
f 52/8/5 50/8/5 51/8/5
f 53/3/6 54/3/6 55/3/6
f 55/3/6 54/3/6 56/3/6
f 56/3/6 54/3/6 57/3/6
f 57/3/6 54/3/6 58/3/6
f 58/3/6 54/3/6 59/3/6
f 59/3/6 54/3/6 60/3/6
f 55/6/6 56/6/6 61/6/6
f 56/5/6 57/5/6 62/5/6
f 61/6/6 56/6/6 62/6/6
f 57/6/6 58/6/6 63/6/6
f 58/7/6 59/7/6 63/7/6
f 59/8/6 60/8/6 64/8/6
f 63/7/6 59/7/6 64/7/6
f 64/8/6 60/8/6 65/8/6
f 62/5/6 57/5/6 66/5/6
f 61/5/6 62/5/6 66/5/6
f 57/6/6 63/6/6 67/6/6
f 66/5/6 57/5/6 67/5/6
f 63/6/6 64/6/6 67/6/6
f 67/6/6 64/6/6 68/6/6
f 64/2/6 65/2/6 69/2/6
f 68/6/6 64/6/6 69/6/6
f 69/2/6 65/2/6 70/2/6
f 61/5/6 66/5/6 71/5/6
f 67/7/6 68/7/6 72/7/6
f 71/5/6 66/5/6 72/5/6
f 66/7/6 67/7/6 72/7/6
f 68/5/6 69/5/6 73/5/6
f 72/7/6 68/7/6 73/7/6
f 69/4/6 70/4/6 74/4/6
f 73/5/6 69/5/6 74/5/6
f 71/7/6 72/7/6 75/7/6
f 72/6/6 73/6/6 76/6/6
f 75/7/6 72/7/6 76/7/6
f 73/7/6 74/7/6 77/7/6
f 76/6/6 73/6/6 77/6/6
f 74/4/6 70/4/6 78/4/6
f 77/7/6 74/7/6 78/7/6
f 78/4/6 70/4/6 79/4/6
f 76/3/6 77/3/6 80/3/6
f 75/3/6 76/3/6 80/3/6
f 78/3/6 79/3/6 80/3/6
f 77/3/6 78/3/6 80/3/6
f 80/3/6 79/3/6 81/3/6
