# MagicaVoxel @ Ephtracy

# group
o 

# material
mtllib holeDanger.mtl
usemtl palette

# normals
vn -1 0 0
vn 1 0 0
vn 0 0 1
vn 0 0 -1
vn 0 -1 0
vn 0 1 0

# texcoords
vt 0.697266 0.5
vt 0.876953 0.5
vt 0.955078 0.5
vt 0.994141 0.5

# verts
v -0.3 -0.2 0.3
v -0.3 -0.2 -0.3
v -0.3 0 0.3
v -0.3 0 0.2
v -0.3 0 0.1
v -0.3 0 0
v -0.3 0 -0.1
v -0.3 0 -0.2
v -0.3 0 -0.3
v -0.3 0.1 0.3
v -0.3 0.1 0.2
v -0.3 0.1 0.1
v -0.3 0.1 0
v -0.3 0.1 -0.1
v -0.3 0.1 -0.2
v -0.3 0.1 -0.3
v 0.3 -0.2 0.3
v 0.3 -0.2 -0.3
v 0.3 0 0.3
v 0.3 0 0.2
v 0.3 0 0.1
v 0.3 0 -0.1
v 0.3 0 -0.2
v 0.3 0 -0.3
v 0.3 0.1 0.3
v 0.3 0.1 0.2
v 0.3 0.1 0.1
v 0.3 0.1 -0.1
v 0.3 0.1 -0.2
v 0.3 0.1 -0.3
v -0.3 -0.2 0.3
v -0.3 0 0.3
v -0.3 0.1 0.3
v -0.2 0 0.3
v -0.2 0.1 0.3
v -0.1 0 0.3
v -0.1 0.1 0.3
v 0 0 0.3
v 0 0.1 0.3
v 0.1 0 0.3
v 0.1 0.1 0.3
v 0.2 0 0.3
v 0.2 0.1 0.3
v 0.3 -0.2 0.3
v 0.3 0 0.3
v 0.3 0.1 0.3
v -0.3 -0.2 -0.3
v -0.3 0 -0.3
v -0.3 0.1 -0.3
v -0.2 0 -0.3
v -0.2 0.1 -0.3
v 0 0 -0.3
v 0 0.1 -0.3
v 0.1 0 -0.3
v 0.1 0.1 -0.3
v 0.2 0 -0.3
v 0.2 0.1 -0.3
v 0.3 -0.2 -0.3
v 0.3 0 -0.3
v 0.3 0.1 -0.3
v -0.3 -0.2 0.3
v 0.3 -0.2 0.3
v -0.3 -0.2 -0.3
v 0.3 -0.2 -0.3
v -0.3 0.1 0.3
v -0.2 0.1 0.3
v -0.1 0.1 0.3
v 0 0.1 0.3
v 0.1 0.1 0.3
v 0.2 0.1 0.3
v 0.3 0.1 0.3
v -0.3 0.1 0.2
v -0.2 0.1 0.2
v -0.1 0.1 0.2
v 0 0.1 0.2
v 0.1 0.1 0.2
v 0.2 0.1 0.2
v 0.3 0.1 0.2
v -0.3 0.1 0.1
v -0.2 0.1 0.1
v -0.1 0.1 0.1
v 0 0.1 0.1
v 0.1 0.1 0.1
v 0.2 0.1 0.1
v 0.3 0.1 0.1
v -0.3 0.1 0
v -0.2 0.1 0
v -0.1 0.1 0
v 0 0.1 0
v 0.1 0.1 0
v 0.2 0.1 0
v -0.3 0.1 -0.1
v -0.2 0.1 -0.1
v -0.1 0.1 -0.1
v 0 0.1 -0.1
v 0.1 0.1 -0.1
v 0.2 0.1 -0.1
v 0.3 0.1 -0.1
v -0.3 0.1 -0.2
v -0.2 0.1 -0.2
v -0.1 0.1 -0.2
v 0 0.1 -0.2
v 0.1 0.1 -0.2
v 0.2 0.1 -0.2
v 0.3 0.1 -0.2
v -0.3 0.1 -0.3
v -0.2 0.1 -0.3
v 0 0.1 -0.3
v 0.1 0.1 -0.3
v 0.2 0.1 -0.3
v 0.3 0.1 -0.3

# faces
f 3/4/1 2/4/1 1/4/1
f 4/4/1 2/4/1 3/4/1
f 5/4/1 2/4/1 4/4/1
f 6/4/1 2/4/1 5/4/1
f 7/4/1 2/4/1 6/4/1
f 8/4/1 2/4/1 7/4/1
f 9/4/1 2/4/1 8/4/1
f 10/1/1 4/1/1 3/1/1
f 11/4/1 5/4/1 4/4/1
f 11/1/1 4/1/1 10/1/1
f 12/3/1 6/3/1 5/3/1
f 12/4/1 5/4/1 11/4/1
f 13/1/1 7/1/1 6/1/1
f 13/3/1 6/3/1 12/3/1
f 14/4/1 8/4/1 7/4/1
f 14/1/1 7/1/1 13/1/1
f 15/1/1 9/1/1 8/1/1
f 15/4/1 8/4/1 14/4/1
f 16/1/1 9/1/1 15/1/1
f 17/4/2 18/4/2 19/4/2
f 19/4/2 18/4/2 20/4/2
f 20/4/2 18/4/2 21/4/2
f 21/4/2 18/4/2 22/4/2
f 22/4/2 18/4/2 23/4/2
f 23/4/2 18/4/2 24/4/2
f 19/1/2 20/1/2 25/1/2
f 20/4/2 21/4/2 26/4/2
f 25/1/2 20/1/2 26/1/2
f 21/3/2 22/3/2 27/3/2
f 26/4/2 21/4/2 27/4/2
f 22/1/2 23/1/2 28/1/2
f 27/3/2 22/3/2 28/3/2
f 23/3/2 24/3/2 29/3/2
f 28/1/2 23/1/2 29/1/2
f 29/3/2 24/3/2 30/3/2
f 34/4/3 32/4/3 31/4/3
f 34/1/3 33/1/3 32/1/3
f 35/1/3 33/1/3 34/1/3
f 36/4/3 34/4/3 31/4/3
f 36/2/3 35/2/3 34/2/3
f 37/2/3 35/2/3 36/2/3
f 38/4/3 36/4/3 31/4/3
f 38/4/3 37/4/3 36/4/3
f 39/4/3 37/4/3 38/4/3
f 40/4/3 38/4/3 31/4/3
f 40/2/3 39/2/3 38/2/3
f 41/2/3 39/2/3 40/2/3
f 42/4/3 40/4/3 31/4/3
f 42/3/3 41/3/3 40/3/3
f 43/3/3 41/3/3 42/3/3
f 44/4/3 42/4/3 31/4/3
f 45/1/3 43/1/3 42/1/3
f 45/4/3 42/4/3 44/4/3
f 46/1/3 43/1/3 45/1/3
f 47/4/4 48/4/4 50/4/4
f 48/1/4 49/1/4 50/1/4
f 50/1/4 49/1/4 51/1/4
f 47/4/4 50/4/4 52/4/4
f 50/3/4 51/3/4 52/3/4
f 52/3/4 51/3/4 53/3/4
f 47/4/4 52/4/4 54/4/4
f 52/1/4 53/1/4 54/1/4
f 54/1/4 53/1/4 55/1/4
f 47/4/4 54/4/4 56/4/4
f 54/4/4 55/4/4 56/4/4
f 56/4/4 55/4/4 57/4/4
f 47/4/4 56/4/4 58/4/4
f 56/3/4 57/3/4 59/3/4
f 58/4/4 56/4/4 59/4/4
f 59/3/4 57/3/4 60/3/4
f 63/4/5 62/4/5 61/4/5
f 64/4/5 62/4/5 63/4/5
f 65/1/6 66/1/6 72/1/6
f 66/2/6 67/2/6 73/2/6
f 72/1/6 66/1/6 73/1/6
f 67/4/6 68/4/6 74/4/6
f 73/2/6 67/2/6 74/2/6
f 68/2/6 69/2/6 75/2/6
f 74/4/6 68/4/6 75/4/6
f 69/3/6 70/3/6 76/3/6
f 75/2/6 69/2/6 76/2/6
f 70/1/6 71/1/6 77/1/6
f 76/3/6 70/3/6 77/3/6
f 77/1/6 71/1/6 78/1/6
f 72/4/6 73/4/6 79/4/6
f 73/3/6 74/3/6 80/3/6
f 79/4/6 73/4/6 80/4/6
f 74/3/6 75/3/6 80/3/6
f 80/3/6 75/3/6 81/3/6
f 75/1/6 76/1/6 82/1/6
f 81/3/6 75/3/6 82/3/6
f 76/1/6 77/1/6 82/1/6
f 82/1/6 77/1/6 83/1/6
f 77/4/6 78/4/6 84/4/6
f 83/1/6 77/1/6 84/1/6
f 84/4/6 78/4/6 85/4/6
f 79/3/6 80/3/6 86/3/6
f 80/1/6 81/1/6 87/1/6
f 86/3/6 80/3/6 87/3/6
f 82/4/6 83/4/6 88/4/6
f 87/1/6 81/1/6 88/1/6
f 81/4/6 82/4/6 88/4/6
f 88/4/6 83/4/6 89/4/6
f 83/2/6 84/2/6 90/2/6
f 89/4/6 83/4/6 90/4/6
f 84/3/6 85/3/6 91/3/6
f 90/2/6 84/2/6 91/2/6
f 86/1/6 87/1/6 92/1/6
f 87/3/6 88/3/6 93/3/6
f 92/1/6 87/1/6 93/1/6
f 88/1/6 89/1/6 94/1/6
f 93/3/6 88/3/6 94/3/6
f 89/3/6 90/3/6 95/3/6
f 94/1/6 89/1/6 95/1/6
f 90/1/6 91/1/6 96/1/6
f 95/3/6 90/3/6 96/3/6
f 91/3/6 85/3/6 97/3/6
f 96/1/6 91/1/6 97/1/6
f 97/3/6 85/3/6 98/3/6
f 92/4/6 93/4/6 99/4/6
f 93/2/6 94/2/6 100/2/6
f 99/4/6 93/4/6 100/4/6
f 94/4/6 95/4/6 101/4/6
f 100/2/6 94/2/6 101/2/6
f 95/3/6 96/3/6 102/3/6
f 101/4/6 95/4/6 102/4/6
f 96/2/6 97/2/6 103/2/6
f 102/3/6 96/3/6 103/3/6
f 97/1/6 98/1/6 104/1/6
f 103/2/6 97/2/6 104/2/6
f 104/1/6 98/1/6 105/1/6
f 99/1/6 100/1/6 106/1/6
f 100/3/6 101/3/6 107/3/6
f 106/1/6 100/1/6 107/1/6
f 101/3/6 102/3/6 107/3/6
f 102/1/6 103/1/6 108/1/6
f 107/3/6 102/3/6 108/3/6
f 103/4/6 104/4/6 109/4/6
f 108/1/6 103/1/6 109/1/6
f 104/3/6 105/3/6 110/3/6
f 109/4/6 104/4/6 110/4/6
f 110/3/6 105/3/6 111/3/6
