# MagicaVoxel @ Ephtracy

# group
o 

# material
mtllib roadVox.mtl
usemtl palette

# normals
vn -1 0 0
vn 1 0 0
vn 0 0 1
vn 0 0 -1
vn 0 -1 0
vn 0 1 0

# texcoords
vt 0.537109 0.5
vt 0.904297 0.5
vt 0.978516 0.5
vt 0.982422 0.5
vt 0.986328 0.5
vt 0.994141 0.5

# verts
v -0.3 -0.2 0.3
v -0.3 -0.2 -0.3
v -0.3 0.1 0.3
v -0.3 0.1 -0.3
v -0.3 0.3 0.3
v -0.3 0.3 0.2
v -0.3 0.3 0.1
v -0.3 0.3 -0.1
v -0.3 0.3 -0.2
v -0.3 0.3 -0.3
v -0.3 0.4 0.3
v -0.3 0.4 0.2
v -0.3 0.4 0.1
v -0.3 0.4 -0.1
v -0.3 0.4 -0.2
v -0.3 0.4 -0.3
v 0.3 -0.2 0.3
v 0.3 -0.2 -0.3
v 0.3 0.1 0.3
v 0.3 0.1 -0.3
v 0.3 0.3 0.3
v 0.3 0.3 0.2
v 0.3 0.3 0.1
v 0.3 0.3 -0.1
v 0.3 0.3 -0.2
v 0.3 0.3 -0.3
v 0.3 0.4 0.3
v 0.3 0.4 0.2
v 0.3 0.4 0.1
v 0.3 0.4 -0.1
v 0.3 0.4 -0.2
v 0.3 0.4 -0.3
v -0.3 -0.2 0.3
v -0.3 0.1 0.3
v -0.3 0.3 0.3
v -0.3 0.4 0.3
v 0.3 -0.2 0.3
v 0.3 0.1 0.3
v 0.3 0.3 0.3
v 0.3 0.4 0.3
v -0.3 -0.2 -0.3
v -0.3 0.1 -0.3
v -0.3 0.3 -0.3
v -0.3 0.4 -0.3
v 0.3 -0.2 -0.3
v 0.3 0.1 -0.3
v 0.3 0.3 -0.3
v 0.3 0.4 -0.3
v -0.3 -0.2 0.3
v 0.3 -0.2 0.3
v -0.3 -0.2 -0.3
v 0.3 -0.2 -0.3
v -0.3 0.4 0.3
v 0.3 0.4 0.3
v -0.3 0.4 0.2
v -0.1 0.4 0.2
v 0.2 0.4 0.2
v 0.3 0.4 0.2
v -0.3 0.4 0.1
v -0.1 0.4 0.1
v 0.2 0.4 0.1
v 0.3 0.4 0.1
v -0.2 0.4 0
v -0.1 0.4 0
v 0.1 0.4 0
v 0.2 0.4 0
v -0.3 0.4 -0.1
v -0.2 0.4 -0.1
v 0 0.4 -0.1
v 0.2 0.4 -0.1
v 0.3 0.4 -0.1
v -0.3 0.4 -0.2
v -0.2 0.4 -0.2
v 0 0.4 -0.2
v 0.1 0.4 -0.2
v 0.2 0.4 -0.2
v 0.3 0.4 -0.2
v -0.3 0.4 -0.3
v 0.3 0.4 -0.3

# faces
f 3/6/1 2/6/1 1/6/1
f 4/6/1 2/6/1 3/6/1
f 5/1/1 4/1/1 3/1/1
f 6/1/1 4/1/1 5/1/1
f 7/1/1 4/1/1 6/1/1
f 8/1/1 4/1/1 7/1/1
f 9/1/1 4/1/1 8/1/1
f 10/1/1 4/1/1 9/1/1
f 11/2/1 6/2/1 5/2/1
f 12/5/1 7/5/1 6/5/1
f 12/2/1 6/2/1 11/2/1
f 13/3/1 8/3/1 7/3/1
f 13/5/1 7/5/1 12/5/1
f 14/4/1 9/4/1 8/4/1
f 14/3/1 8/3/1 13/3/1
f 15/2/1 10/2/1 9/2/1
f 15/4/1 9/4/1 14/4/1
f 16/2/1 10/2/1 15/2/1
f 17/6/2 18/6/2 19/6/2
f 19/6/2 18/6/2 20/6/2
f 19/1/2 20/1/2 21/1/2
f 21/1/2 20/1/2 22/1/2
f 22/1/2 20/1/2 23/1/2
f 23/1/2 20/1/2 24/1/2
f 24/1/2 20/1/2 25/1/2
f 25/1/2 20/1/2 26/1/2
f 21/2/2 22/2/2 27/2/2
f 22/5/2 23/5/2 28/5/2
f 27/2/2 22/2/2 28/2/2
f 23/3/2 24/3/2 29/3/2
f 28/5/2 23/5/2 29/5/2
f 24/4/2 25/4/2 30/4/2
f 29/3/2 24/3/2 30/3/2
f 25/2/2 26/2/2 31/2/2
f 30/4/2 25/4/2 31/4/2
f 31/2/2 26/2/2 32/2/2
f 37/6/3 34/6/3 33/6/3
f 38/1/3 35/1/3 34/1/3
f 38/6/3 34/6/3 37/6/3
f 39/2/3 36/2/3 35/2/3
f 39/1/3 35/1/3 38/1/3
f 40/2/3 36/2/3 39/2/3
f 41/6/4 42/6/4 45/6/4
f 42/1/4 43/1/4 46/1/4
f 45/6/4 42/6/4 46/6/4
f 43/2/4 44/2/4 47/2/4
f 46/1/4 43/1/4 47/1/4
f 47/2/4 44/2/4 48/2/4
f 51/6/5 50/6/5 49/6/5
f 52/6/5 50/6/5 51/6/5
f 53/2/6 54/2/6 55/2/6
f 55/2/6 54/2/6 56/2/6
f 56/2/6 54/2/6 57/2/6
f 57/2/6 54/2/6 58/2/6
f 55/5/6 56/5/6 59/5/6
f 56/4/6 57/4/6 60/4/6
f 59/5/6 56/5/6 60/5/6
f 57/5/6 58/5/6 61/5/6
f 60/4/6 57/4/6 61/4/6
f 61/5/6 58/5/6 62/5/6
f 59/3/6 60/3/6 63/3/6
f 60/5/6 61/5/6 64/5/6
f 63/3/6 60/3/6 64/3/6
f 64/5/6 61/5/6 65/5/6
f 61/3/6 62/3/6 66/3/6
f 65/5/6 61/5/6 66/5/6
f 59/3/6 63/3/6 67/3/6
f 64/4/6 65/4/6 68/4/6
f 67/3/6 63/3/6 68/3/6
f 63/4/6 64/4/6 68/4/6
f 68/4/6 65/4/6 69/4/6
f 66/3/6 62/3/6 70/3/6
f 65/3/6 66/3/6 70/3/6
f 70/3/6 62/3/6 71/3/6
f 67/4/6 68/4/6 72/4/6
f 68/5/6 69/5/6 73/5/6
f 72/4/6 68/4/6 73/4/6
f 69/4/6 65/4/6 74/4/6
f 73/5/6 69/5/6 74/5/6
f 65/3/6 70/3/6 75/3/6
f 74/4/6 65/4/6 75/4/6
f 70/4/6 71/4/6 76/4/6
f 75/3/6 70/3/6 76/3/6
f 76/4/6 71/4/6 77/4/6
f 72/2/6 73/2/6 78/2/6
f 73/2/6 74/2/6 78/2/6
f 76/2/6 77/2/6 78/2/6
f 75/2/6 76/2/6 78/2/6
f 74/2/6 75/2/6 78/2/6
f 78/2/6 77/2/6 79/2/6
