# MagicaVoxel @ Ephtracy

# group
o 

# material
mtllib waterVox.mtl
usemtl palette

# normals
vn -1 0 0
vn 1 0 0
vn 0 0 1
vn 0 0 -1
vn 0 -1 0
vn 0 1 0

# texcoords
vt 0.830078 0.5
vt 0.833984 0.5
vt 0.927734 0.5
vt 0.931641 0.5
vt 0.939453 0.5
vt 0.994141 0.5

# verts
v -0.3 -0.2 0.3
v -0.3 -0.2 -0.3
v -0.3 0 0.3
v -0.3 0 0.2
v -0.3 0 0.1
v -0.3 0 0
v -0.3 0 -0.1
v -0.3 0 -0.2
v -0.3 0 -0.3
v -0.3 0.1 0.3
v -0.3 0.1 0.2
v -0.3 0.1 0.1
v -0.3 0.1 0
v -0.3 0.1 -0.1
v -0.3 0.1 -0.2
v -0.3 0.1 -0.3
v 0.3 -0.2 0.3
v 0.3 -0.2 -0.3
v 0.3 0 0.3
v 0.3 0 0.2
v 0.3 0 0.1
v 0.3 0 0
v 0.3 0 -0.1
v 0.3 0 -0.2
v 0.3 0 -0.3
v 0.3 0.1 0.3
v 0.3 0.1 0.2
v 0.3 0.1 0.1
v 0.3 0.1 0
v 0.3 0.1 -0.1
v 0.3 0.1 -0.2
v 0.3 0.1 -0.3
v -0.3 -0.2 0.3
v -0.3 0 0.3
v -0.3 0.1 0.3
v -0.2 0 0.3
v -0.2 0.1 0.3
v -0.1 0 0.3
v -0.1 0.1 0.3
v 0 0 0.3
v 0 0.1 0.3
v 0.1 0 0.3
v 0.1 0.1 0.3
v 0.2 0 0.3
v 0.2 0.1 0.3
v 0.3 -0.2 0.3
v 0.3 0 0.3
v 0.3 0.1 0.3
v -0.3 -0.2 -0.3
v -0.3 0 -0.3
v -0.3 0.1 -0.3
v -0.2 0 -0.3
v -0.2 0.1 -0.3
v -0.1 0 -0.3
v -0.1 0.1 -0.3
v 0 0 -0.3
v 0 0.1 -0.3
v 0.1 0 -0.3
v 0.1 0.1 -0.3
v 0.2 0 -0.3
v 0.2 0.1 -0.3
v 0.3 -0.2 -0.3
v 0.3 0 -0.3
v 0.3 0.1 -0.3
v -0.3 -0.2 0.3
v 0.3 -0.2 0.3
v -0.3 -0.2 -0.3
v 0.3 -0.2 -0.3
v -0.3 0.1 0.3
v -0.2 0.1 0.3
v -0.1 0.1 0.3
v 0 0.1 0.3
v 0.1 0.1 0.3
v 0.2 0.1 0.3
v 0.3 0.1 0.3
v -0.3 0.1 0.2
v -0.2 0.1 0.2
v -0.1 0.1 0.2
v 0 0.1 0.2
v 0.1 0.1 0.2
v 0.2 0.1 0.2
v 0.3 0.1 0.2
v -0.3 0.1 0.1
v -0.2 0.1 0.1
v -0.1 0.1 0.1
v 0 0.1 0.1
v 0.1 0.1 0.1
v 0.2 0.1 0.1
v 0.3 0.1 0.1
v -0.3 0.1 0
v -0.2 0.1 0
v -0.1 0.1 0
v 0 0.1 0
v 0.1 0.1 0
v 0.2 0.1 0
v 0.3 0.1 0
v -0.3 0.1 -0.1
v -0.2 0.1 -0.1
v -0.1 0.1 -0.1
v 0 0.1 -0.1
v 0.1 0.1 -0.1
v 0.2 0.1 -0.1
v 0.3 0.1 -0.1
v -0.3 0.1 -0.2
v -0.2 0.1 -0.2
v -0.1 0.1 -0.2
v 0 0.1 -0.2
v 0.1 0.1 -0.2
v 0.2 0.1 -0.2
v 0.3 0.1 -0.2
v -0.3 0.1 -0.3
v -0.2 0.1 -0.3
v -0.1 0.1 -0.3
v 0 0.1 -0.3
v 0.1 0.1 -0.3
v 0.2 0.1 -0.3
v 0.3 0.1 -0.3

# faces
f 3/6/1 2/6/1 1/6/1
f 4/6/1 2/6/1 3/6/1
f 5/6/1 2/6/1 4/6/1
f 6/6/1 2/6/1 5/6/1
f 7/6/1 2/6/1 6/6/1
f 8/6/1 2/6/1 7/6/1
f 9/6/1 2/6/1 8/6/1
f 10/4/1 4/4/1 3/4/1
f 11/5/1 5/5/1 4/5/1
f 11/4/1 4/4/1 10/4/1
f 12/3/1 6/3/1 5/3/1
f 12/5/1 5/5/1 11/5/1
f 13/2/1 7/2/1 6/2/1
f 13/3/1 6/3/1 12/3/1
f 14/5/1 8/5/1 7/5/1
f 14/2/1 7/2/1 13/2/1
f 15/4/1 9/4/1 8/4/1
f 15/5/1 8/5/1 14/5/1
f 16/4/1 9/4/1 15/4/1
f 17/6/2 18/6/2 19/6/2
f 19/6/2 18/6/2 20/6/2
f 20/6/2 18/6/2 21/6/2
f 21/6/2 18/6/2 22/6/2
f 22/6/2 18/6/2 23/6/2
f 23/6/2 18/6/2 24/6/2
f 24/6/2 18/6/2 25/6/2
f 19/5/2 20/5/2 26/5/2
f 20/3/2 21/3/2 27/3/2
f 26/5/2 20/5/2 27/5/2
f 21/5/2 22/5/2 28/5/2
f 27/3/2 21/3/2 28/3/2
f 22/4/2 23/4/2 29/4/2
f 28/5/2 22/5/2 29/5/2
f 23/1/2 24/1/2 30/1/2
f 29/4/2 23/4/2 30/4/2
f 24/2/2 25/2/2 31/2/2
f 30/1/2 24/1/2 31/1/2
f 31/2/2 25/2/2 32/2/2
f 36/6/3 34/6/3 33/6/3
f 36/4/3 35/4/3 34/4/3
f 37/4/3 35/4/3 36/4/3
f 38/6/3 36/6/3 33/6/3
f 38/2/3 37/2/3 36/2/3
f 39/2/3 37/2/3 38/2/3
f 40/6/3 38/6/3 33/6/3
f 40/4/3 39/4/3 38/4/3
f 41/4/3 39/4/3 40/4/3
f 42/6/3 40/6/3 33/6/3
f 42/5/3 41/5/3 40/5/3
f 43/5/3 41/5/3 42/5/3
f 44/6/3 42/6/3 33/6/3
f 44/3/3 43/3/3 42/3/3
f 45/3/3 43/3/3 44/3/3
f 46/6/3 44/6/3 33/6/3
f 47/5/3 45/5/3 44/5/3
f 47/6/3 44/6/3 46/6/3
f 48/5/3 45/5/3 47/5/3
f 49/6/4 50/6/4 52/6/4
f 50/4/4 51/4/4 52/4/4
f 52/4/4 51/4/4 53/4/4
f 49/6/4 52/6/4 54/6/4
f 52/2/4 53/2/4 54/2/4
f 54/2/4 53/2/4 55/2/4
f 49/6/4 54/6/4 56/6/4
f 54/3/4 55/3/4 56/3/4
f 56/3/4 55/3/4 57/3/4
f 49/6/4 56/6/4 58/6/4
f 56/5/4 57/5/4 58/5/4
f 58/5/4 57/5/4 59/5/4
f 49/6/4 58/6/4 60/6/4
f 58/4/4 59/4/4 60/4/4
f 60/4/4 59/4/4 61/4/4
f 49/6/4 60/6/4 62/6/4
f 60/2/4 61/2/4 63/2/4
f 62/6/4 60/6/4 63/6/4
f 63/2/4 61/2/4 64/2/4
f 67/6/5 66/6/5 65/6/5
f 68/6/5 66/6/5 67/6/5
f 69/4/6 70/4/6 76/4/6
f 70/2/6 71/2/6 77/2/6
f 76/4/6 70/4/6 77/4/6
f 71/4/6 72/4/6 78/4/6
f 77/2/6 71/2/6 78/2/6
f 72/5/6 73/5/6 79/5/6
f 78/4/6 72/4/6 79/4/6
f 73/3/6 74/3/6 80/3/6
f 79/5/6 73/5/6 80/5/6
f 74/5/6 75/5/6 81/5/6
f 80/3/6 74/3/6 81/3/6
f 81/5/6 75/5/6 82/5/6
f 76/5/6 77/5/6 83/5/6
f 77/3/6 78/3/6 84/3/6
f 83/5/6 77/5/6 84/5/6
f 78/5/6 79/5/6 85/5/6
f 84/3/6 78/3/6 85/3/6
f 79/1/6 80/1/6 86/1/6
f 85/5/6 79/5/6 86/5/6
f 80/4/6 81/4/6 87/4/6
f 86/1/6 80/1/6 87/1/6
f 81/3/6 82/3/6 88/3/6
f 87/4/6 81/4/6 88/4/6
f 88/3/6 82/3/6 89/3/6
f 83/3/6 84/3/6 90/3/6
f 84/5/6 85/5/6 91/5/6
f 90/3/6 84/3/6 91/3/6
f 85/2/6 86/2/6 92/2/6
f 91/5/6 85/5/6 92/5/6
f 86/4/6 87/4/6 93/4/6
f 92/2/6 86/2/6 93/2/6
f 87/1/6 88/1/6 94/1/6
f 93/4/6 87/4/6 94/4/6
f 88/5/6 89/5/6 95/5/6
f 94/1/6 88/1/6 95/1/6
f 95/5/6 89/5/6 96/5/6
f 90/2/6 91/2/6 97/2/6
f 91/4/6 92/4/6 98/4/6
f 97/2/6 91/2/6 98/2/6
f 92/5/6 93/5/6 99/5/6
f 98/4/6 92/4/6 99/4/6
f 93/1/6 94/1/6 100/1/6
f 99/5/6 93/5/6 100/5/6
f 94/2/6 95/2/6 101/2/6
f 100/1/6 94/1/6 101/1/6
f 95/4/6 96/4/6 102/4/6
f 101/2/6 95/2/6 102/2/6
f 102/4/6 96/4/6 103/4/6
f 97/5/6 98/5/6 104/5/6
f 98/3/6 99/3/6 105/3/6
f 104/5/6 98/5/6 105/5/6
f 99/2/6 100/2/6 106/2/6
f 105/3/6 99/3/6 106/3/6
f 100/3/6 101/3/6 107/3/6
f 106/2/6 100/2/6 107/2/6
f 101/5/6 102/5/6 108/5/6
f 107/3/6 101/3/6 108/3/6
f 102/1/6 103/1/6 109/1/6
f 108/5/6 102/5/6 109/5/6
f 109/1/6 103/1/6 110/1/6
f 104/4/6 105/4/6 111/4/6
f 105/2/6 106/2/6 112/2/6
f 111/4/6 105/4/6 112/4/6
f 106/3/6 107/3/6 113/3/6
f 112/2/6 106/2/6 113/2/6
f 107/5/6 108/5/6 114/5/6
f 113/3/6 107/3/6 114/3/6
f 108/4/6 109/4/6 115/4/6
f 114/5/6 108/5/6 115/5/6
f 109/2/6 110/2/6 116/2/6
f 115/4/6 109/4/6 116/4/6
f 116/2/6 110/2/6 117/2/6
