# MagicaVoxel @ Ephtracy

# group
o 

# material
mtllib woodProtector.mtl
usemtl palette

# normals
vn -1 0 0
vn 1 0 0
vn 0 0 1
vn 0 0 -1
vn 0 -1 0
vn 0 1 0

# texcoords
vt 0.0175781 0.5
vt 0.0214844 0.5
vt 0.0253906 0.5
vt 0.0292969 0.5
vt 0.537109 0.5
vt 0.970703 0.5

# verts
v -0.3 -0.2 0.3
v -0.3 -0.2 0.2
v -0.3 -0.2 0.1
v -0.3 -0.2 0
v -0.3 -0.2 -0.1
v -0.3 -0.2 -0.2
v -0.3 -0.2 -0.3
v -0.3 -0.1 0.3
v -0.3 -0.1 0.2
v -0.3 -0.1 0.1
v -0.3 -0.1 0
v -0.3 -0.1 -0.1
v -0.3 -0.1 -0.2
v -0.3 -0.1 -0.3
v -0.3 0 0.3
v -0.3 0 0.2
v -0.3 0 0.1
v -0.3 0 0
v -0.3 0 -0.1
v -0.3 0 -0.2
v -0.3 0 -0.3
v -0.3 0.1 0.3
v -0.3 0.1 0.2
v -0.3 0.1 0.1
v -0.3 0.1 0
v -0.3 0.1 -0.1
v -0.3 0.1 -0.2
v -0.3 0.1 -0.3
v -0.3 0.2 0.3
v -0.3 0.2 0.2
v -0.3 0.2 0.1
v -0.3 0.2 0
v -0.3 0.2 -0.1
v -0.3 0.2 -0.2
v -0.3 0.2 -0.3
v -0.3 0.3 0.3
v -0.3 0.3 0.2
v -0.3 0.3 0.1
v -0.3 0.3 0
v -0.3 0.3 -0.1
v -0.3 0.3 -0.2
v -0.3 0.3 -0.3
v -0.3 0.4 0.3
v -0.3 0.4 0.2
v -0.3 0.4 0.1
v -0.3 0.4 0
v -0.3 0.4 -0.1
v -0.3 0.4 -0.2
v -0.3 0.4 -0.3
v 0.3 -0.2 0.3
v 0.3 -0.2 0.2
v 0.3 -0.2 0.1
v 0.3 -0.2 0
v 0.3 -0.2 -0.1
v 0.3 -0.2 -0.2
v 0.3 -0.2 -0.3
v 0.3 -0.1 0.3
v 0.3 -0.1 0.2
v 0.3 -0.1 0.1
v 0.3 -0.1 0
v 0.3 -0.1 -0.1
v 0.3 -0.1 -0.2
v 0.3 -0.1 -0.3
v 0.3 0 0.2
v 0.3 0 0.1
v 0.3 0 0
v 0.3 0 -0.1
v 0.3 0 -0.2
v 0.3 0 -0.3
v 0.3 0.1 0.3
v 0.3 0.1 0.2
v 0.3 0.1 0.1
v 0.3 0.1 0
v 0.3 0.1 -0.1
v 0.3 0.1 -0.2
v 0.3 0.1 -0.3
v 0.3 0.2 0.3
v 0.3 0.2 0.2
v 0.3 0.2 0.1
v 0.3 0.2 0
v 0.3 0.2 -0.1
v 0.3 0.2 -0.2
v 0.3 0.2 -0.3
v 0.3 0.3 0.3
v 0.3 0.3 0.2
v 0.3 0.3 0.1
v 0.3 0.3 0
v 0.3 0.3 -0.1
v 0.3 0.3 -0.2
v 0.3 0.3 -0.3
v 0.3 0.4 0.3
v 0.3 0.4 0.2
v 0.3 0.4 0.1
v 0.3 0.4 0
v 0.3 0.4 -0.1
v 0.3 0.4 -0.2
v 0.3 0.4 -0.3
v -0.3 -0.2 0.3
v -0.3 -0.1 0.3
v -0.3 0 0.3
v -0.3 0.1 0.3
v -0.3 0.2 0.3
v -0.3 0.3 0.3
v -0.3 0.4 0.3
v -0.2 -0.2 0.3
v -0.2 -0.1 0.3
v -0.2 0 0.3
v -0.2 0.1 0.3
v -0.2 0.2 0.3
v -0.2 0.3 0.3
v -0.2 0.4 0.3
v -0.1 -0.2 0.3
v -0.1 -0.1 0.3
v -0.1 0 0.3
v -0.1 0.1 0.3
v -0.1 0.2 0.3
v -0.1 0.3 0.3
v -0.1 0.4 0.3
v 0 -0.2 0.3
v 0 -0.1 0.3
v 0 0 0.3
v 0 0.1 0.3
v 0 0.2 0.3
v 0 0.3 0.3
v 0 0.4 0.3
v 0.1 -0.2 0.3
v 0.1 -0.1 0.3
v 0.1 0 0.3
v 0.1 0.1 0.3
v 0.1 0.2 0.3
v 0.1 0.3 0.3
v 0.1 0.4 0.3
v 0.2 -0.2 0.3
v 0.2 -0.1 0.3
v 0.2 0 0.3
v 0.2 0.1 0.3
v 0.2 0.2 0.3
v 0.2 0.3 0.3
v 0.2 0.4 0.3
v 0.3 -0.2 0.3
v 0.3 -0.1 0.3
v 0.3 0.1 0.3
v 0.3 0.2 0.3
v 0.3 0.3 0.3
v 0.3 0.4 0.3
v -0.3 -0.2 -0.3
v -0.3 -0.1 -0.3
v -0.3 0 -0.3
v -0.3 0.1 -0.3
v -0.3 0.2 -0.3
v -0.3 0.3 -0.3
v -0.3 0.4 -0.3
v -0.2 -0.2 -0.3
v -0.2 -0.1 -0.3
v -0.2 0 -0.3
v -0.2 0.1 -0.3
v -0.2 0.2 -0.3
v -0.2 0.3 -0.3
v -0.2 0.4 -0.3
v -0.1 -0.2 -0.3
v -0.1 -0.1 -0.3
v -0.1 0 -0.3
v -0.1 0.1 -0.3
v -0.1 0.2 -0.3
v -0.1 0.4 -0.3
v 0 -0.2 -0.3
v 0 -0.1 -0.3
v 0 0 -0.3
v 0 0.1 -0.3
v 0 0.2 -0.3
v 0 0.3 -0.3
v 0 0.4 -0.3
v 0.1 -0.2 -0.3
v 0.1 0 -0.3
v 0.1 0.1 -0.3
v 0.1 0.2 -0.3
v 0.1 0.3 -0.3
v 0.1 0.4 -0.3
v 0.2 -0.2 -0.3
v 0.2 -0.1 -0.3
v 0.2 0 -0.3
v 0.2 0.1 -0.3
v 0.2 0.2 -0.3
v 0.2 0.3 -0.3
v 0.2 0.4 -0.3
v 0.3 -0.2 -0.3
v 0.3 -0.1 -0.3
v 0.3 0 -0.3
v 0.3 0.1 -0.3
v 0.3 0.2 -0.3
v 0.3 0.3 -0.3
v 0.3 0.4 -0.3
v -0.3 -0.2 0.3
v -0.2 -0.2 0.3
v -0.1 -0.2 0.3
v 0 -0.2 0.3
v 0.1 -0.2 0.3
v 0.2 -0.2 0.3
v 0.3 -0.2 0.3
v -0.3 -0.2 0.2
v -0.2 -0.2 0.2
v -0.1 -0.2 0.2
v 0 -0.2 0.2
v 0.1 -0.2 0.2
v 0.2 -0.2 0.2
v 0.3 -0.2 0.2
v -0.3 -0.2 0.1
v -0.2 -0.2 0.1
v -0.1 -0.2 0.1
v 0 -0.2 0.1
v 0.1 -0.2 0.1
v 0.2 -0.2 0.1
v 0.3 -0.2 0.1
v -0.3 -0.2 0
v -0.2 -0.2 0
v -0.1 -0.2 0
v 0 -0.2 0
v 0.1 -0.2 0
v 0.2 -0.2 0
v 0.3 -0.2 0
v -0.3 -0.2 -0.1
v -0.2 -0.2 -0.1
v -0.1 -0.2 -0.1
v 0 -0.2 -0.1
v 0.1 -0.2 -0.1
v 0.2 -0.2 -0.1
v 0.3 -0.2 -0.1
v -0.3 -0.2 -0.2
v -0.2 -0.2 -0.2
v -0.1 -0.2 -0.2
v 0 -0.2 -0.2
v 0.1 -0.2 -0.2
v 0.2 -0.2 -0.2
v 0.3 -0.2 -0.2
v -0.3 -0.2 -0.3
v -0.2 -0.2 -0.3
v -0.1 -0.2 -0.3
v 0 -0.2 -0.3
v 0.1 -0.2 -0.3
v 0.2 -0.2 -0.3
v 0.3 -0.2 -0.3
v -0.3 0.4 0.3
v -0.2 0.4 0.3
v -0.1 0.4 0.3
v 0 0.4 0.3
v 0.1 0.4 0.3
v 0.2 0.4 0.3
v 0.3 0.4 0.3
v -0.3 0.4 0.2
v -0.2 0.4 0.2
v -0.1 0.4 0.2
v 0 0.4 0.2
v 0.1 0.4 0.2
v 0.2 0.4 0.2
v 0.3 0.4 0.2
v -0.3 0.4 0.1
v -0.2 0.4 0.1
v -0.1 0.4 0.1
v 0 0.4 0.1
v 0.1 0.4 0.1
v 0.2 0.4 0.1
v 0.3 0.4 0.1
v -0.3 0.4 0
v -0.2 0.4 0
v -0.1 0.4 0
v 0 0.4 0
v 0.1 0.4 0
v 0.2 0.4 0
v 0.3 0.4 0
v -0.3 0.4 -0.1
v -0.2 0.4 -0.1
v -0.1 0.4 -0.1
v 0 0.4 -0.1
v 0.1 0.4 -0.1
v 0.2 0.4 -0.1
v 0.3 0.4 -0.1
v -0.3 0.4 -0.2
v -0.2 0.4 -0.2
v -0.1 0.4 -0.2
v 0 0.4 -0.2
v 0.1 0.4 -0.2
v 0.2 0.4 -0.2
v 0.3 0.4 -0.2
v -0.3 0.4 -0.3
v -0.2 0.4 -0.3
v -0.1 0.4 -0.3
v 0 0.4 -0.3
v 0.1 0.4 -0.3
v 0.2 0.4 -0.3
v 0.3 0.4 -0.3

# faces
f 8/4/1 2/4/1 1/4/1
f 9/1/1 3/1/1 2/1/1
f 9/4/1 2/4/1 8/4/1
f 10/2/1 4/2/1 3/2/1
f 10/1/1 3/1/1 9/1/1
f 11/1/1 5/1/1 4/1/1
f 11/2/1 4/2/1 10/2/1
f 12/3/1 6/3/1 5/3/1
f 12/1/1 5/1/1 11/1/1
f 13/6/1 7/6/1 6/6/1
f 13/3/1 6/3/1 12/3/1
f 14/6/1 7/6/1 13/6/1
f 15/3/1 9/3/1 8/3/1
f 16/6/1 10/6/1 9/6/1
f 16/3/1 9/3/1 15/3/1
f 17/1/1 11/1/1 10/1/1
f 17/6/1 10/6/1 16/6/1
f 18/2/1 12/2/1 11/2/1
f 18/1/1 11/1/1 17/1/1
f 19/4/1 13/4/1 12/4/1
f 19/2/1 12/2/1 18/2/1
f 19/4/1 14/4/1 13/4/1
f 20/4/1 14/4/1 19/4/1
f 21/4/1 14/4/1 20/4/1
f 22/1/1 16/1/1 15/1/1
f 23/2/1 17/2/1 16/2/1
f 23/1/1 16/1/1 22/1/1
f 24/4/1 18/4/1 17/4/1
f 24/2/1 17/2/1 23/2/1
f 25/3/1 19/3/1 18/3/1
f 25/4/1 18/4/1 24/4/1
f 26/6/1 20/6/1 19/6/1
f 26/3/1 19/3/1 25/3/1
f 27/2/1 21/2/1 20/2/1
f 27/6/1 20/6/1 26/6/1
f 28/2/1 21/2/1 27/2/1
f 29/2/1 23/2/1 22/2/1
f 30/4/1 24/4/1 23/4/1
f 30/2/1 23/2/1 29/2/1
f 31/6/1 25/6/1 24/6/1
f 31/4/1 24/4/1 30/4/1
f 32/2/1 26/2/1 25/2/1
f 32/6/1 25/6/1 31/6/1
f 33/1/1 27/1/1 26/1/1
f 33/2/1 26/2/1 32/2/1
f 34/3/1 28/3/1 27/3/1
f 34/1/1 27/1/1 33/1/1
f 35/3/1 28/3/1 34/3/1
f 36/6/1 30/6/1 29/6/1
f 37/4/1 31/4/1 30/4/1
f 37/6/1 30/6/1 36/6/1
f 38/3/1 32/3/1 31/3/1
f 38/4/1 31/4/1 37/4/1
f 39/6/1 33/6/1 32/6/1
f 39/3/1 32/3/1 38/3/1
f 40/4/1 34/4/1 33/4/1
f 40/6/1 33/6/1 39/6/1
f 41/2/1 35/2/1 34/2/1
f 41/4/1 34/4/1 40/4/1
f 42/2/1 35/2/1 41/2/1
f 43/4/1 37/4/1 36/4/1
f 44/1/1 38/1/1 37/1/1
f 44/4/1 37/4/1 43/4/1
f 45/2/1 39/2/1 38/2/1
f 45/1/1 38/1/1 44/1/1
f 46/1/1 40/1/1 39/1/1
f 46/2/1 39/2/1 45/2/1
f 47/3/1 41/3/1 40/3/1
f 47/1/1 40/1/1 46/1/1
f 48/6/1 42/6/1 41/6/1
f 48/3/1 41/3/1 47/3/1
f 49/6/1 42/6/1 48/6/1
f 50/3/2 51/3/2 57/3/2
f 51/6/2 52/6/2 58/6/2
f 57/3/2 51/3/2 58/3/2
f 52/1/2 53/1/2 59/1/2
f 58/6/2 52/6/2 59/6/2
f 53/4/2 54/4/2 60/4/2
f 59/1/2 53/1/2 60/1/2
f 54/3/2 55/3/2 61/3/2
f 60/4/2 54/4/2 61/4/2
f 55/2/2 56/2/2 62/2/2
f 61/3/2 55/3/2 62/3/2
f 62/2/2 56/2/2 63/2/2
f 57/4/2 58/4/2 64/4/2
f 58/4/2 59/4/2 64/4/2
f 59/2/2 60/2/2 65/2/2
f 64/4/2 59/4/2 65/4/2
f 60/1/2 61/1/2 66/1/2
f 65/2/2 60/2/2 66/2/2
f 61/6/2 62/6/2 67/6/2
f 66/1/2 61/1/2 67/1/2
f 62/3/2 63/3/2 68/3/2
f 67/6/2 62/6/2 68/6/2
f 68/3/2 63/3/2 69/3/2
f 57/4/2 64/4/2 70/4/2
f 64/6/2 65/6/2 71/6/2
f 70/4/2 64/4/2 71/4/2
f 65/3/2 66/3/2 72/3/2
f 71/6/2 65/6/2 72/6/2
f 66/4/2 67/4/2 73/4/2
f 72/3/2 66/3/2 73/3/2
f 67/2/2 68/2/2 74/2/2
f 73/4/2 67/4/2 74/4/2
f 68/6/2 69/6/2 75/6/2
f 74/2/2 68/2/2 75/2/2
f 75/6/2 69/6/2 76/6/2
f 70/3/2 71/3/2 77/3/2
f 71/1/2 72/1/2 78/1/2
f 77/3/2 71/3/2 78/3/2
f 72/2/2 73/2/2 79/2/2
f 78/1/2 72/1/2 79/1/2
f 73/1/2 74/1/2 80/1/2
f 79/2/2 73/2/2 80/2/2
f 74/4/2 75/4/2 81/4/2
f 80/1/2 74/1/2 81/1/2
f 75/3/2 76/3/2 82/3/2
f 81/4/2 75/4/2 82/4/2
f 82/3/2 76/3/2 83/3/2
f 77/6/2 78/6/2 84/6/2
f 78/4/2 79/4/2 85/4/2
f 84/6/2 78/6/2 85/6/2
f 79/6/2 80/6/2 86/6/2
f 85/4/2 79/4/2 86/4/2
f 80/3/2 81/3/2 87/3/2
f 86/6/2 80/6/2 87/6/2
f 81/4/2 82/4/2 88/4/2
f 87/3/2 81/3/2 88/3/2
f 82/1/2 83/1/2 89/1/2
f 88/4/2 82/4/2 89/4/2
f 89/1/2 83/1/2 90/1/2
f 84/3/2 85/3/2 91/3/2
f 85/6/2 86/6/2 92/6/2
f 91/3/2 85/3/2 92/3/2
f 86/1/2 87/1/2 93/1/2
f 92/6/2 86/6/2 93/6/2
f 87/4/2 88/4/2 94/4/2
f 93/1/2 87/1/2 94/1/2
f 88/3/2 89/3/2 95/3/2
f 94/4/2 88/4/2 95/4/2
f 89/2/2 90/2/2 96/2/2
f 95/3/2 89/3/2 96/3/2
f 96/2/2 90/2/2 97/2/2
f 105/4/3 99/4/3 98/4/3
f 106/3/3 100/3/3 99/3/3
f 106/4/3 99/4/3 105/4/3
f 107/1/3 101/1/3 100/1/3
f 107/3/3 100/3/3 106/3/3
f 108/2/3 102/2/3 101/2/3
f 108/1/3 101/1/3 107/1/3
f 109/6/3 103/6/3 102/6/3
f 109/2/3 102/2/3 108/2/3
f 110/4/3 104/4/3 103/4/3
f 110/6/3 103/6/3 109/6/3
f 111/4/3 104/4/3 110/4/3
f 112/2/3 106/2/3 105/2/3
f 113/4/3 107/4/3 106/4/3
f 113/2/3 106/2/3 112/2/3
f 114/6/3 108/6/3 107/6/3
f 114/4/3 107/4/3 113/4/3
f 115/1/3 109/1/3 108/1/3
f 115/6/3 108/6/3 114/6/3
f 116/4/3 110/4/3 109/4/3
f 116/1/3 109/1/3 115/1/3
f 117/2/3 111/2/3 110/2/3
f 117/4/3 110/4/3 116/4/3
f 118/2/3 111/2/3 117/2/3
f 119/6/3 113/6/3 112/6/3
f 120/2/3 114/2/3 113/2/3
f 120/6/3 113/6/3 119/6/3
f 121/3/3 115/3/3 114/3/3
f 121/2/3 114/2/3 120/2/3
f 122/2/3 116/2/3 115/2/3
f 122/3/3 115/3/3 121/3/3
f 123/3/3 117/3/3 116/3/3
f 123/2/3 116/2/3 122/2/3
f 124/6/3 118/6/3 117/6/3
f 124/3/3 117/3/3 123/3/3
f 125/6/3 118/6/3 124/6/3
f 126/3/3 120/3/3 119/3/3
f 127/1/3 121/1/3 120/1/3
f 127/3/3 120/3/3 126/3/3
f 128/4/3 122/4/3 121/4/3
f 128/1/3 121/1/3 127/1/3
f 129/6/3 123/6/3 122/6/3
f 129/4/3 122/4/3 128/4/3
f 130/2/3 124/2/3 123/2/3
f 130/6/3 123/6/3 129/6/3
f 131/3/3 125/3/3 124/3/3
f 131/2/3 124/2/3 130/2/3
f 132/3/3 125/3/3 131/3/3
f 133/2/3 127/2/3 126/2/3
f 134/6/3 128/6/3 127/6/3
f 134/2/3 127/2/3 133/2/3
f 135/2/3 129/2/3 128/2/3
f 135/6/3 128/6/3 134/6/3
f 136/4/3 130/4/3 129/4/3
f 136/2/3 129/2/3 135/2/3
f 137/2/3 131/2/3 130/2/3
f 137/4/3 130/4/3 136/4/3
f 138/4/3 132/4/3 131/4/3
f 138/2/3 131/2/3 137/2/3
f 139/4/3 132/4/3 138/4/3
f 140/3/3 134/3/3 133/3/3
f 141/4/3 135/4/3 134/4/3
f 141/3/3 134/3/3 140/3/3
f 141/4/3 136/4/3 135/4/3
f 142/3/3 137/3/3 136/3/3
f 142/4/3 136/4/3 141/4/3
f 143/6/3 138/6/3 137/6/3
f 143/3/3 137/3/3 142/3/3
f 144/3/3 139/3/3 138/3/3
f 144/6/3 138/6/3 143/6/3
f 145/3/3 139/3/3 144/3/3
f 146/6/4 147/6/4 153/6/4
f 147/4/4 148/4/4 154/4/4
f 153/6/4 147/6/4 154/6/4
f 148/2/4 149/2/4 155/2/4
f 154/4/4 148/4/4 155/4/4
f 149/3/4 150/3/4 156/3/4
f 155/2/4 149/2/4 156/2/4
f 150/2/4 151/2/4 157/2/4
f 156/3/4 150/3/4 157/3/4
f 151/6/4 152/6/4 158/6/4
f 157/2/4 151/2/4 158/2/4
f 158/6/4 152/6/4 159/6/4
f 153/4/4 154/4/4 160/4/4
f 154/6/4 155/6/4 161/6/4
f 160/4/4 154/4/4 161/4/4
f 155/2/4 156/2/4 162/2/4
f 161/6/4 155/6/4 162/6/4
f 156/4/4 157/4/4 163/4/4
f 162/2/4 156/2/4 163/2/4
f 157/4/4 158/4/4 163/4/4
f 158/4/4 159/4/4 163/4/4
f 163/4/4 159/4/4 164/4/4
f 164/4/4 159/4/4 165/4/4
f 160/3/4 161/3/4 166/3/4
f 161/1/4 162/1/4 167/1/4
f 166/3/4 161/3/4 167/3/4
f 162/4/4 163/4/4 168/4/4
f 167/1/4 162/1/4 168/1/4
f 163/6/4 164/6/4 169/6/4
f 168/4/4 163/4/4 169/4/4
f 164/3/4 165/3/4 170/3/4
f 169/6/4 164/6/4 170/6/4
f 170/3/4 165/3/4 171/3/4
f 171/3/4 165/3/4 172/3/4
f 166/2/4 167/2/4 173/2/4
f 167/2/4 168/2/4 173/2/4
f 168/3/4 169/3/4 174/3/4
f 173/2/4 168/2/4 174/2/4
f 169/2/4 170/2/4 175/2/4
f 174/3/4 169/3/4 175/3/4
f 170/6/4 171/6/4 176/6/4
f 175/2/4 170/2/4 176/2/4
f 171/2/4 172/2/4 177/2/4
f 176/6/4 171/6/4 177/6/4
f 177/2/4 172/2/4 178/2/4
f 173/4/4 174/4/4 179/4/4
f 179/4/4 174/4/4 180/4/4
f 174/6/4 175/6/4 181/6/4
f 180/4/4 174/4/4 181/4/4
f 175/1/4 176/1/4 182/1/4
f 181/6/4 175/6/4 182/6/4
f 176/4/4 177/4/4 183/4/4
f 182/1/4 176/1/4 183/1/4
f 177/4/4 178/4/4 183/4/4
f 183/4/4 178/4/4 184/4/4
f 184/4/4 178/4/4 185/4/4
f 179/2/4 180/2/4 186/2/4
f 180/3/4 181/3/4 187/3/4
f 186/2/4 180/2/4 187/2/4
f 181/6/4 182/6/4 188/6/4
f 187/3/4 181/3/4 188/3/4
f 182/3/4 183/3/4 189/3/4
f 188/6/4 182/6/4 189/6/4
f 183/1/4 184/1/4 190/1/4
f 189/3/4 183/3/4 190/3/4
f 184/2/4 185/2/4 191/2/4
f 190/1/4 184/1/4 191/1/4
f 191/2/4 185/2/4 192/2/4
f 200/4/5 194/4/5 193/4/5
f 201/2/5 195/2/5 194/2/5
f 201/4/5 194/4/5 200/4/5
f 202/6/5 196/6/5 195/6/5
f 202/2/5 195/2/5 201/2/5
f 203/3/5 197/3/5 196/3/5
f 203/6/5 196/6/5 202/6/5
f 204/2/5 198/2/5 197/2/5
f 204/3/5 197/3/5 203/3/5
f 205/3/5 199/3/5 198/3/5
f 205/2/5 198/2/5 204/2/5
f 206/3/5 199/3/5 205/3/5
f 207/1/5 201/1/5 200/1/5
f 208/3/5 202/3/5 201/3/5
f 208/1/5 201/1/5 207/1/5
f 209/1/5 203/1/5 202/1/5
f 209/3/5 202/3/5 208/3/5
f 210/2/5 204/2/5 203/2/5
f 210/1/5 203/1/5 209/1/5
f 211/4/5 205/4/5 204/4/5
f 211/2/5 204/2/5 210/2/5
f 212/6/5 206/6/5 205/6/5
f 212/4/5 205/4/5 211/4/5
f 213/6/5 206/6/5 212/6/5
f 214/2/5 208/2/5 207/2/5
f 215/4/5 209/4/5 208/4/5
f 215/2/5 208/2/5 214/2/5
f 216/3/5 210/3/5 209/3/5
f 216/4/5 209/4/5 215/4/5
f 217/4/5 211/4/5 210/4/5
f 217/3/5 210/3/5 216/3/5
f 218/3/5 212/3/5 211/3/5
f 218/4/5 211/4/5 217/4/5
f 219/1/5 213/1/5 212/1/5
f 219/3/5 212/3/5 218/3/5
f 220/1/5 213/1/5 219/1/5
f 221/1/5 215/1/5 214/1/5
f 222/6/5 216/6/5 215/6/5
f 222/1/5 215/1/5 221/1/5
f 223/4/5 217/4/5 216/4/5
f 223/6/5 216/6/5 222/6/5
f 224/3/5 218/3/5 217/3/5
f 224/4/5 217/4/5 223/4/5
f 225/2/5 219/2/5 218/2/5
f 225/3/5 218/3/5 224/3/5
f 226/4/5 220/4/5 219/4/5
f 226/2/5 219/2/5 225/2/5
f 227/4/5 220/4/5 226/4/5
f 228/3/5 222/3/5 221/3/5
f 229/2/5 223/2/5 222/2/5
f 229/3/5 222/3/5 228/3/5
f 230/1/5 224/1/5 223/1/5
f 230/2/5 223/2/5 229/2/5
f 231/6/5 225/6/5 224/6/5
f 231/1/5 224/1/5 230/1/5
f 232/1/5 226/1/5 225/1/5
f 232/6/5 225/6/5 231/6/5
f 233/3/5 227/3/5 226/3/5
f 233/1/5 226/1/5 232/1/5
f 234/3/5 227/3/5 233/3/5
f 235/6/5 229/6/5 228/6/5
f 236/4/5 230/4/5 229/4/5
f 236/6/5 229/6/5 235/6/5
f 237/3/5 231/3/5 230/3/5
f 237/4/5 230/4/5 236/4/5
f 238/2/5 232/2/5 231/2/5
f 238/3/5 231/3/5 237/3/5
f 239/4/5 233/4/5 232/4/5
f 239/2/5 232/2/5 238/2/5
f 240/2/5 234/2/5 233/2/5
f 240/4/5 233/4/5 239/4/5
f 241/2/5 234/2/5 240/2/5
f 242/4/6 243/4/6 249/4/6
f 243/2/6 244/2/6 250/2/6
f 249/4/6 243/4/6 250/4/6
f 244/6/6 245/6/6 251/6/6
f 250/2/6 244/2/6 251/2/6
f 245/3/6 246/3/6 252/3/6
f 251/6/6 245/6/6 252/6/6
f 246/4/6 247/4/6 253/4/6
f 252/3/6 246/3/6 253/3/6
f 247/3/6 248/3/6 254/3/6
f 253/4/6 247/4/6 254/4/6
f 254/3/6 248/3/6 255/3/6
f 249/1/6 250/1/6 256/1/6
f 250/3/6 251/3/6 257/3/6
f 256/1/6 250/1/6 257/1/6
f 251/1/6 252/1/6 258/1/6
f 257/3/6 251/3/6 258/3/6
f 252/2/6 253/2/6 259/2/6
f 258/1/6 252/1/6 259/1/6
f 253/2/6 254/2/6 259/2/6
f 259/2/6 254/2/6 260/2/6
f 254/6/6 255/6/6 261/6/6
f 260/2/6 254/2/6 261/2/6
f 261/6/6 255/6/6 262/6/6
f 256/2/6 257/2/6 263/2/6
f 257/4/6 258/4/6 264/4/6
f 263/2/6 257/2/6 264/2/6
f 258/3/6 259/3/6 265/3/6
f 264/4/6 258/4/6 265/4/6
f 259/4/6 260/4/6 266/4/6
f 265/3/6 259/3/6 266/3/6
f 260/3/6 261/3/6 267/3/6
f 266/4/6 260/4/6 267/4/6
f 261/1/6 262/1/6 268/1/6
f 267/3/6 261/3/6 268/3/6
f 268/1/6 262/1/6 269/1/6
f 263/1/6 264/1/6 270/1/6
f 264/6/6 265/6/6 271/6/6
f 270/1/6 264/1/6 271/1/6
f 265/4/6 266/4/6 272/4/6
f 271/6/6 265/6/6 272/6/6
f 266/3/6 267/3/6 273/3/6
f 272/4/6 266/4/6 273/4/6
f 267/2/6 268/2/6 274/2/6
f 273/3/6 267/3/6 274/3/6
f 268/4/6 269/4/6 275/4/6
f 274/2/6 268/2/6 275/2/6
f 275/4/6 269/4/6 276/4/6
f 270/3/6 271/3/6 277/3/6
f 271/2/6 272/2/6 278/2/6
f 277/3/6 271/3/6 278/3/6
f 272/1/6 273/1/6 279/1/6
f 278/2/6 272/2/6 279/2/6
f 273/6/6 274/6/6 280/6/6
f 279/1/6 273/1/6 280/1/6
f 274/1/6 275/1/6 281/1/6
f 280/6/6 274/6/6 281/6/6
f 275/3/6 276/3/6 282/3/6
f 281/1/6 275/1/6 282/1/6
f 282/3/6 276/3/6 283/3/6
f 277/6/6 278/6/6 284/6/6
f 278/4/6 279/4/6 285/4/6
f 284/6/6 278/6/6 285/6/6
f 279/3/6 280/3/6 286/3/6
f 285/4/6 279/4/6 286/4/6
f 280/2/6 281/2/6 287/2/6
f 286/3/6 280/3/6 287/3/6
f 281/4/6 282/4/6 288/4/6
f 287/2/6 281/2/6 288/2/6
f 282/2/6 283/2/6 289/2/6
f 288/4/6 282/4/6 289/4/6
f 289/2/6 283/2/6 290/2/6
